HIERARCHY
ROOT Hips
{
     OFFSET 1.88212 96.90440 -13.34250
     CHANNELS 6 Xposition Yposition Zposition Zrotation Xrotation Yrotation
     JOINT Spine
     {
          OFFSET 0.00000 11.89050 0.00000
          CHANNELS 3 Zrotation Xrotation Yrotation
          JOINT Spine1
          {
               OFFSET -0.00000 25.65740 0.12766
               CHANNELS 3 Zrotation Xrotation Yrotation
               JOINT HEad
               {
                    OFFSET 0.00000 8.73416 0.01134
                    CHANNELS 3 Zrotation Xrotation Yrotation
                    End Site
                    {
                         OFFSET -0.29000 12.77420 2.51395
                    }
               }
               JOINT LeftShoulder1
               {
                    OFFSET 8.99000 -0.36225 -0.22000
                    CHANNELS 3 Zrotation Xrotation Yrotation
                    JOINT LeftArm
                    {
                         OFFSET 10.28270 -0.00338 0.32212
                         CHANNELS 3 Zrotation Xrotation Yrotation
                         JOINT LeftForeArm
                         {
                              OFFSET 32.76690 0.09914 -1.42434
                              CHANNELS 3 Zrotation Xrotation Yrotation
                              JOINT LeftHand
                              {
                                   OFFSET 27.56430 0.08536 1.02216
                                   CHANNELS 3 Zrotation Xrotation Yrotation
                                   End Site
                                   {
                                        OFFSET 16.74430 -0.60000 1.50291
                                   }
                              }
                         }
                    }
               }
               JOINT RightShoulder
               {
                    OFFSET -8.99000 -0.36225 -0.22000
                    CHANNELS 3 Zrotation Xrotation Yrotation
                    JOINT RightArm
                    {
                         OFFSET -10.28270 -0.00338 0.32212
                         CHANNELS 3 Zrotation Xrotation Yrotation
                         JOINT RightForeArm
                         {
                              OFFSET -32.89710 0.09914 -1.42434
                              CHANNELS 3 Zrotation Xrotation Yrotation
                              JOINT RightHand
                              {
                                   OFFSET -27.49210 0.08536 1.02216
                                   CHANNELS 3 Zrotation Xrotation Yrotation
                                   End Site
                                   {
                                        OFFSET -16.63120 -0.60000 1.50291
                                   }
                              }
                         }
                    }
               }
          }
     }
     JOINT LeftUpLeg
     {
          OFFSET 8.94580 -8.66707 0.10165
          CHANNELS 3 Zrotation Xrotation Yrotation
          JOINT LeftLeg
          {
               OFFSET 0.00000 -44.42270 1.37270
               CHANNELS 3 Zrotation Xrotation Yrotation
               JOINT LeftFoot
               {
                    OFFSET -0.25355 -42.09240 -1.46059
                    CHANNELS 3 Zrotation Xrotation Yrotation
                    JOINT LeftToes
                    {
                         OFFSET -0.04000 -4.41509 8.49910
                         CHANNELS 3 Zrotation Xrotation Yrotation
                         End Site
                         {
                              OFFSET 0.08000 -0.04745 9.77979
                         }
                    }
               }
          }
     }
     JOINT RightUpLeg
     {
          OFFSET -8.94580 -8.66707 0.10165
          CHANNELS 3 Zrotation Xrotation Yrotation
          JOINT RightLeg
          {
               OFFSET 0.00000 -44.42270 1.37270
               CHANNELS 3 Zrotation Xrotation Yrotation
               JOINT RightFoot
               {
                    OFFSET 0.25355 -42.09240 -1.46059
                    CHANNELS 3 Zrotation Xrotation Yrotation
                    JOINT RightToes
                    {
                         OFFSET 0.04000 -4.41509 8.49910
                         CHANNELS 3 Zrotation Xrotation Yrotation
                         End Site
                         {
                              OFFSET -0.08000 -0.13745 9.77979
                         }
                    }
               }
          }
     }
}
MOTION
Frames: 20
Frame Time: 0.01667
-153.16638 92.35899 91.89434 10.88571 -9.35890 59.27052 -0.94337 24.58753 -19.64073 -0.01601 0.02902 0.03561 -3.35934 6.17525 23.28204 -5.12149 9.90428 15.98818 -129.43858 -56.85601 -104.28416 -37.37887 58.47448 -82.12541 18.32929 7.45324 -12.62008 12.30426 13.35683 8.64669 88.77128 0.06534 75.70290 10.09555 34.76277 96.32478 18.81949 12.14811 7.10864 19.05430 -9.36535 -18.65902 -34.91103 8.60199 79.76299 20.48577 0.02209 0.01290 -15.57486 -28.22176 -67.87019 -12.30521 5.88815 0.51879 29.18460 14.94776 -31.63413 -29.99127 -0.00231 -0.00393 10.49177 -40.92318 33.06858 
-152.92407 91.91632 91.59885 10.54469 -9.40516 58.70634 -0.21040 22.61742 -20.67558 -0.01686 0.03076 0.02942 -2.15267 7.71061 22.28810 -6.30460 11.11225 16.82714 -128.36273 -56.83593 -103.64001 -35.45721 58.11687 -83.08224 18.58391 7.31773 -12.30900 11.16474 14.92924 9.83718 88.44347 -0.21218 75.44116 10.12909 34.43933 97.12373 19.79609 11.91613 6.09978 19.72514 -9.42265 -18.90959 -34.03057 8.27352 78.96345 19.00793 0.00286 0.03087 -14.38608 -27.16487 -66.65479 -11.83953 4.22855 -0.36909 28.42482 17.38722 -31.25451 -29.99627 -0.00325 -0.00383 10.67858 -42.34015 32.45090 
-152.72296 91.57184 91.40483 10.19831 -9.42137 58.17394 0.46388 21.72759 -19.88157 -0.03600 0.10320 0.09868 -0.53743 8.10985 19.53847 -6.71803 11.40485 15.71005 -126.88255 -56.63482 -102.71606 -33.55593 57.55866 -83.87985 18.83877 7.16668 -12.01953 10.87857 15.06289 9.25047 88.05199 -0.41799 75.16595 10.16923 34.12783 97.95493 19.02692 11.93598 6.43763 19.96203 -9.39096 -19.12749 -32.24521 8.22608 76.43466 17.06495 -0.02942 0.05073 -12.15005 -25.20781 -63.99158 -11.54428 2.72857 -1.09884 27.94123 19.78505 -30.98685 -30.14825 -0.00258 -0.00360 10.93826 -43.89280 31.69478 
-152.57426 91.32646 91.27518 9.87680 -9.42169 57.69404 0.95219 21.80618 -17.52626 -0.04075 0.09603 0.08494 1.45113 7.55941 15.57738 -6.42103 11.07488 13.12828 -124.94088 -56.20815 -101.45822 -31.62298 56.76396 -84.55875 19.06191 7.06558 -11.82531 11.41005 14.17297 7.26364 87.57835 -0.56206 74.79727 10.15415 33.90228 98.92878 19.61092 11.75954 5.77506 19.90636 -9.28310 -19.30501 -31.14836 8.04454 74.26805 15.42893 -0.04017 0.02116 -9.88954 -24.18190 -61.44090 -11.37472 1.36354 -1.68890 27.69525 22.06160 -30.86629 -30.01052 -0.00216 -0.00060 10.75581 -45.52208 30.82084 
-152.45660 91.15671 91.16736 9.60825 -9.40829 57.28199 1.21863 21.71603 -14.85914 -0.01310 0.01443 -0.00645 3.22647 7.12903 11.67129 -6.34333 11.00438 10.80304 -116.05569 -53.11389 -95.67017 -26.09132 52.40802 -86.37227 19.25118 6.99612 -11.60831 12.01628 13.52501 5.08371 87.09546 -0.79900 74.36737 10.13486 33.73258 99.98745 19.12091 11.72606 5.89744 19.71657 -9.13265 -19.42549 -30.40941 7.84534 72.38300 13.96338 -0.03248 0.00941 -7.70537 -23.47101 -59.27399 -11.33254 0.11765 -2.15101 27.72986 24.12934 -30.93792 -30.00108 -0.00134 -0.00063 10.53167 -47.10548 29.91825 
-152.33527 91.03101 91.05458 9.40963 -9.37364 56.94699 1.27413 21.45035 -12.00305 -0.00910 0.01159 -0.01622 4.85287 6.69993 7.74682 -6.09026 11.11729 8.23211 -110.20304 -50.85215 -91.97971 -22.65657 49.13066 -87.37585 19.37224 6.96457 -11.43521 12.79765 12.95177 2.65143 86.57572 -1.11025 73.87702 10.10954 33.61789 101.09423 19.42006 11.59569 5.41677 19.50556 -8.97348 -19.47436 -29.86738 7.66809 70.74561 12.59767 -0.02548 0.00482 -5.64533 -22.93479 -57.41746 -11.43647 -1.01215 -2.49493 27.99105 25.97319 -31.19398 -30.00102 -0.00075 -0.00037 10.20151 -48.61378 29.02779 
-152.18823 90.92420 90.92812 9.28746 -9.30890 56.69414 1.18907 21.31581 -9.42789 -0.00760 0.01015 -0.01712 6.26291 6.10238 4.32147 -5.75906 11.11401 5.87253 -106.10712 -49.18859 -89.42306 -20.37740 46.58189 -87.95020 19.37962 6.94796 -11.21041 13.58662 12.31930 0.52978 86.05531 -1.49547 73.34644 10.09462 33.53184 102.22172 19.06433 11.55207 5.41736 19.33052 -8.82843 -19.44502 -29.46653 7.52213 69.34190 11.30198 -0.01981 0.00274 -3.73004 -22.48599 -55.93267 -11.69198 -2.01861 -2.72929 28.43156 27.58534 -31.61743 -30.00077 -0.00035 -0.00022 9.80882 -50.03357 28.18899 
-152.01064 90.82204 90.79401 9.23938 -9.20788 56.52546 0.97222 21.28003 -7.14156 -0.00645 0.00895 -0.01724 7.44605 5.40563 1.39583 -5.40358 11.01918 3.76524 -103.07915 -47.87243 -87.53709 -18.76496 44.52894 -88.25124 19.33523 6.93792 -11.07950 14.34837 11.66452 -1.27015 85.55974 -1.94790 72.79251 10.08584 33.47186 103.33824 19.18416 11.43812 5.05773 19.21065 -8.70955 -19.33700 -29.19671 7.41091 68.16436 10.06507 -0.01499 0.00154 -1.95943 -22.14800 -54.80436 -12.08565 -2.89271 -2.86146 29.01047 28.96525 -32.19074 -30.00053 -0.00010 -0.00017 9.37590 -51.37861 27.42938 
-151.80949 90.71962 90.66509 9.25582 -9.07108 56.44040 0.64099 21.31620 -5.14517 -0.00551 0.00802 -0.01708 8.40446 4.66337 -1.04675 -5.05622 10.85993 1.92581 -100.74182 -46.74067 -86.09109 -17.55248 42.81722 -88.36459 19.23465 6.93601 -10.94409 15.05247 11.01859 -2.76072 85.11519 -2.44510 72.23722 10.08970 33.42139 104.41921 18.93062 11.35771 4.98478 19.14482 -8.61832 -19.15468 -29.05326 7.33828 67.20141 8.88060 -0.01078 0.00065 -0.33289 -21.91758 -54.02858 -12.58904 -3.63073 -2.89816 29.69932 30.11881 -32.90180 -30.00039 0.00001 -0.00014 8.92405 -52.65991 26.78338 
-151.59575 90.61729 90.55318 9.32750 -8.89940 56.43478 0.21032 21.40519 -3.43134 -0.00478 0.00732 -0.01670 9.14818 3.91715 -3.03082 -4.72961 10.65834 0.35584 -98.87934 -45.70679 -84.95443 -16.59295 41.35032 -88.35741 19.12281 6.94919 -10.87724 15.68881 10.40364 -3.96626 84.72769 -2.94809 71.69713 10.09800 33.37045 105.43963 18.99684 11.23631 4.69285 19.12022 -8.55445 -18.90355 -29.03160 7.31116 66.43604 7.74412 -0.00714 -0.00007 1.15381 -21.80381 -53.56455 -13.16960 -4.23044 -2.84356 30.47046 31.04953 -33.73672 -30.00031 0.00010 -0.00010 8.47893 -53.88148 26.28083 
-151.37779 90.51698 90.46602 9.44382 -8.69882 56.50180 -0.30154 21.53365 -1.98685 -0.00417 0.00675 -0.01614 9.69289 3.19878 -4.58673 -4.42413 10.42854 -0.95318 -97.36792 -44.73818 -84.04499 -15.80650 40.07790 -88.28133 19.00059 6.98334 -10.80647 16.26337 9.83068 -4.92207 84.38241 -3.41256 71.18624 10.10397 33.29481 106.38667 18.87366 11.15060 4.56811 19.12350 -8.51547 -18.59208 -29.12242 7.33523 65.84646 6.65188 -0.00411 -0.00068 2.51134 -21.80965 -53.36826 -13.79216 -4.69243 -2.70106 31.29572 31.76108 -34.67603 -30.00026 0.00019 -0.00004 8.06811 -55.03056 25.92697 
-151.15901 90.41985 90.40736 9.59441 -8.47818 56.63220 -0.87495 21.69174 -0.79373 -0.00363 0.00630 -0.01542 10.05798 2.53190 -5.74894 -4.13424 10.17967 -2.01732 -96.14000 -43.83601 -83.30794 -15.15342 38.98251 -88.17373 18.89743 7.03232 -10.77149 16.79182 9.30348 -5.66277 84.05602 -3.80061 70.71406 10.09206 33.18227 107.24993 18.95997 11.05942 4.30457 19.14376 -8.49699 -18.23150 -29.31246 7.41382 65.40998 5.59868 -0.00165 -0.00118 3.75898 -21.93953 -53.39447 -14.42565 -5.02106 -2.47343 32.14854 32.26093 -35.69415 -30.00020 0.00029 -0.00001 7.70515 -56.08488 25.69434 
-150.93887 90.32639 90.37800 9.76954 -8.24741 56.81492 -1.48975 21.87158 0.16886 -0.00304 0.00591 -0.01458 10.26405 1.93294 -6.55406 -3.85210 9.91984 -2.85950 -95.15743 -43.01654 -82.70451 -14.61598 38.05966 -88.05531 18.81028 7.08658 -10.73180 17.28270 8.82449 -6.21801 83.73628 -4.09260 70.29069 10.05397 33.02934 108.02180 18.92000 11.00002 4.13825 19.17212 -8.49415 -17.83524 -29.58533 7.54879 65.10752 4.57730 0.00032 -0.00160 4.91881 -22.19276 -53.61242 -15.04358 -5.22442 -2.16326 33.00542 32.56176 -36.76285 -30.00015 0.00036 -0.00001 7.38532 -57.02563 25.53779 
-150.71605 90.23891 90.37724 9.96028 -8.01562 57.03759 -2.12649 22.06632 0.92331 -0.00247 0.00565 -0.01370 10.33137 1.41177 -7.03900 -3.56864 9.65590 -3.50736 -94.38783 -42.29637 -82.20289 -14.18536 37.29744 -87.93481 18.74337 7.13955 -10.72050 17.74089 8.39534 -6.61287 83.42007 -4.28572 69.92355 9.98459 32.84880 108.69320 18.96700 10.94376 3.89725 19.20756 -8.50185 -17.41603 -29.92373 7.73851 64.92283 3.57764 0.00193 -0.00191 6.00556 -22.55541 -53.99991 -15.62982 -5.31317 -1.77402 33.84719 32.67966 -37.85186 -30.00010 0.00040 -0.00004 7.09559 -57.84673 25.41402 
-150.48814 90.15925 90.40382 10.15846 -7.79042 57.28713 -2.76744 22.26978 1.49244 -0.00191 0.00549 -0.01280 10.27850 0.97289 -7.23974 -3.28014 9.39430 -3.98924 -93.79011 -41.68291 -81.77491 -13.84993 36.67030 -87.81525 18.68000 7.19201 -10.71507 18.16940 8.01666 -6.87251 83.10791 -4.38655 69.61778 9.88654 32.65484 109.25911 18.89228 10.91215 3.73448 19.25318 -8.51536 -16.98495 -30.30844 7.97986 64.84041 2.58730 0.00327 -0.00208 7.02406 -22.99529 -54.52987 -16.17438 -5.29984 -1.31057 34.65577 32.63367 -38.93198 -30.00005 0.00040 -0.00009 6.82486 -58.55749 25.29328 
-150.25255 90.08853 90.45605 10.35703 -7.57807 57.55066 -3.39682 22.47671 1.89835 -0.00137 0.00540 -0.01193 10.12179 0.61691 -7.19071 -2.98598 9.14073 -4.33120 -93.32125 -41.17533 -81.39754 -13.59313 36.14741 -87.70120 18.61160 7.24914 -10.73445 18.57147 7.68757 -7.02148 82.80070 -4.40406 69.37417 9.76196 32.46076 109.72030 18.82953 10.89290 3.55576 19.31306 -8.53028 -16.55240 -30.72088 8.26866 64.84286 1.59380 0.00435 -0.00212 7.97768 -23.47166 -55.15835 -16.67062 -5.19765 -0.77945 35.41516 32.44506 -39.97871 -30.00002 0.00037 -0.00014 6.57152 -59.17789 25.16526 
-150.00648 90.02686 90.53134 10.55055 -7.38401 57.81622 -4.00013 22.68315 2.16132 -0.00081 0.00535 -0.01113 9.87494 0.34210 -6.92415 -2.68487 8.90028 -4.55715 -92.95187 -40.77313 -81.05782 -13.39971 35.70659 -87.59834 18.52427 7.31397 -10.75852 18.94380 7.40704 -7.08307 82.50568 -4.34722 69.19128 9.61538 32.27114 110.08603 18.67030 10.90082 3.45482 19.39067 -8.54248 -16.13029 -31.14670 8.59884 64.91206 0.58668 0.00515 -0.00206 8.87765 -23.95033 -55.82785 -17.11426 -5.01939 -0.18884 36.11387 32.13633 -40.97417 -29.99985 0.00031 -0.00018 6.34996 -59.72800 25.04260 
-149.74713 89.97382 90.62665 10.73519 -7.21315 58.07301 -4.56396 22.88644 2.29941 -0.00024 0.00531 -0.01045 9.54924 0.14496 -6.46976 -2.37577 8.67715 -4.68858 -92.67149 -40.48228 -80.75336 -13.26330 35.34315 -87.51079 18.41945 7.38151 -10.78995 19.27561 7.17374 -7.07865 82.23820 -4.22142 69.06585 9.45050 32.08654 110.36832 18.52013 10.92345 3.36844 19.48869 -8.54834 -15.73300 -31.57745 8.96247 65.03395 -0.44169 0.00565 -0.00197 9.74481 -24.41185 -56.48122 -17.50305 -4.77676 0.45256 36.74603 31.73003 -41.90719 -30.00019 0.00021 -0.00020 6.18346 -60.22350 24.95049 
-149.47197 89.92893 90.73896 10.90840 -7.06983 58.31087 -5.07704 23.08439 2.32932 0.00030 0.00526 -0.00986 9.15466 0.02029 -5.85447 -2.06262 8.47194 -4.74326 -92.47627 -40.31356 -80.48408 -13.18906 35.06683 -87.43683 18.30543 7.44045 -10.81483 19.55768 6.98251 -7.02883 82.01050 -4.02852 68.99122 9.27467 31.90388 110.57800 18.33736 10.95828 3.34524 19.60918 -8.54572 -15.37608 -32.01020 9.35175 65.20349 -1.49696 0.00591 -0.00193 10.60558 -24.83908 -57.07243 -17.83611 -4.48057 1.13718 37.31042 31.24766 -42.77227 -30.00004 0.00010 -0.00023 6.07727 -60.67904 24.90268 
-149.17966 89.89194 90.86555 11.06843 -6.95726 58.52032 -5.53196 23.27400 2.26725 0.00072 0.00517 -0.00933 8.70111 -0.03826 -5.10281 -1.75636 8.28016 -4.73496 -92.35248 -40.27542 -80.24288 -13.18993 34.88825 -87.36726 18.20020 7.47683 -10.84500 19.79349 6.82255 -6.95019 81.81888 -3.77208 68.95486 9.09817 31.72106 110.72152 18.19926 10.99106 3.34037 19.75373 -8.53576 -15.07474 -32.44706 9.76193 65.42664 -2.58422 0.00601 -0.00200 11.48715 -25.19415 -57.56496 -18.11371 -4.14141 1.85903 37.80912 30.70856 -43.56919 -30.00005 -0.00001 -0.00024 6.01153 -61.11032 24.89136 
